<!DOCTYPE svg PUBLIC "-//W3C//DTD SVG 1.1//EN" "http://www.w3.org/Graphics/SVG/1.1/DTD/svg11.dtd">
<!-- Uploaded to: SVG Repo, www.svgrepo.com, Transformed by: SVG Repo Mixer Tools -->
<svg height="800px" width="800px" version="1.1" id="Layer_1" xmlns="http://www.w3.org/2000/svg" xmlns:xlink="http://www.w3.org/1999/xlink" viewBox="0 0 512 512" xml:space="preserve" fill="#000000">
<g id="SVGRepo_bgCarrier" stroke-width="0"/>
<g id="SVGRepo_tracerCarrier" stroke-linecap="round" stroke-linejoin="round"/>
<g id="SVGRepo_iconCarrier"> <path style="fill:#1100ff;" d="M421.018,256c0,91.138-73.878,165.02-165.018,165.02c-91.137,0-165.018-73.882-165.018-165.02 S164.863,90.98,256,90.98C347.14,90.98,421.018,164.862,421.018,256z"/> <g> <path style="fill:#40ff00;" d="M154.151,265.525c-20.214-21.77-2.333-32.654-2.333-32.654s37.319-19.439,48.206-21.771 c10.882-2.333,11.661-24.101,7.774-34.984c-3.877-10.859-89.338-10.653-89.77-10.651c-17.092,25.996-27.044,57.1-27.044,90.536 c0,54.939,26.854,103.601,68.145,133.593c4.603-2.531,6.79-7.162,4.925-14.444c-8.757-34.208,42.966-57.532,45.878-84.745 C212.842,263.192,174.366,287.294,154.151,265.525z"/> <path style="fill:#40ff00;" d="M222.568,331.61c0,0-17.188,18.658-12.482,32.654c4.706,13.993,21.811,20.215,30.365,0 C249.004,344.049,239.672,319.947,222.568,331.61z"/> <path style="fill:#40ff00;" d="M311.383,330.814c10.513,20.566,26.389,49.347,40.383,59.585 c10.569-7.542,20.206-16.303,28.716-26.072c12.828-37.137,17.676-73.855,7.69-86.797c-11.662-15.114-22.546-39.215-6.998-44.658 c9.896-3.465,24.517,19.797,39.452,34.48c0.252-3.752,0.392-7.536,0.392-11.351c0-54.775-26.695-103.308-67.775-133.322l0,0 c0,0-10.166,16.118-21.828,16.118c-11.661,0-44.315,0-40.428,21.768c3.885,21.77,27.21,26.435,22.546,45.095 c-4.664,18.658-80.857,18.659-57.534,64.53c21.464,42.206,33.301,24.513,43.72,38.38"/> </g> <circle style="fill:#24cff9;" cx="414.72" cy="66.01" r="29.987"/> <g style="opacity:0.2;"> <path style="fill:#1d1494;" d="M116.568,256c0-86.833,67.068-158,152.226-164.531c-4.222-0.323-8.488-0.489-12.794-0.489 c-91.137,0-165.018,73.882-165.018,165.02S164.863,421.02,256,421.02c4.305,0,8.571-0.166,12.794-0.489 C183.636,414.001,116.568,342.833,116.568,256z"/> </g> <g style="opacity:0.2;"> <path style="fill:#1d1494;" d="M410.321,66.009c0-11.984,7.033-22.322,17.195-27.123c-3.882-1.833-8.216-2.863-12.792-2.863 c-16.563,0-29.988,13.426-29.988,29.987c0,16.562,13.425,29.988,29.988,29.988c4.577,0,8.912-1.029,12.792-2.863 C417.353,88.332,410.321,77.994,410.321,66.009z"/> </g> <g> <path style="fill:#1d1494;" d="M231.043,320.472c-4.307,0-8.691,1.5-13.03,4.458c-0.508,0.346-0.974,0.749-1.392,1.202 c-2.09,2.27-20.255,22.698-14.198,40.709c3.708,11.029,12.949,18.44,22.992,18.44c0,0,0,0,0.001,0 c4.487,0,15.656-1.742,22.479-17.867c5.589-13.209,5.084-28.508-1.254-38.07C242.853,323.623,237.313,320.472,231.043,320.472z M233.006,361.114c-2.119,5.009-4.957,7.999-7.589,7.999c-2.507,0-6.046-2.603-7.668-7.426 c-2.274-6.766,5.475-18.517,10.128-23.882c1.728-1.04,2.77-1.165,3.167-1.165c0.257,0,1.04,0,2.123,1.634 C235.978,342.518,236.878,351.964,233.006,361.114z"/> <path style="fill:#1d1494;" d="M428.715,267.425c0.109-1.657,0.193-3.319,0.254-4.987c0.012-0.308,0.025-0.617,0.036-0.924 c0.057-1.831,0.097-3.668,0.097-5.513c0-1.648-0.028-3.29-0.074-4.928c-0.011-0.372-0.029-0.743-0.042-1.115 c-0.045-1.324-0.103-2.644-0.179-3.96c-0.018-0.318-0.04-0.635-0.06-0.953c-0.092-1.453-0.2-2.902-0.328-4.346 c-0.013-0.15-0.027-0.301-0.04-0.451c-1.251-13.808-4.12-27.156-8.433-39.844c-0.321-0.95-0.663-1.891-1-2.834 c-0.144-0.402-0.283-0.807-0.431-1.208c-2.509-6.86-5.439-13.56-8.803-20.035c-12.273-23.624-30.149-44.432-51.697-60.176 c-0.28-0.205-0.576-0.383-0.876-0.549C328.666,95.036,293.726,82.895,256,82.895c-60.042,0-113.036,30.734-144.094,77.292 c-0.227,0.263-0.44,0.541-0.634,0.836c-8.774,13.345-15.567,27.729-20.318,42.76c-0.112,0.352-0.227,0.704-0.336,1.056 c-0.33,1.066-0.648,2.134-0.956,3.207c-0.204,0.706-0.398,1.416-0.593,2.126c-0.356,1.299-0.701,2.601-1.026,3.908 c-0.286,1.146-0.565,2.294-0.828,3.448c-0.172,0.757-0.335,1.516-0.497,2.275c-0.25,1.173-0.487,2.351-0.714,3.533 c-0.112,0.59-0.233,1.178-0.34,1.769c-0.31,1.716-0.593,3.443-0.852,5.176c-0.079,0.524-0.148,1.049-0.221,1.574 c-0.198,1.413-0.379,2.832-0.542,4.256c-0.056,0.488-0.116,0.977-0.168,1.466c-0.194,1.828-0.363,3.663-0.5,5.506 c-0.025,0.342-0.042,0.683-0.065,1.025c-0.107,1.563-0.191,3.131-0.255,4.705c-0.02,0.509-0.042,1.016-0.058,1.526 c-0.06,1.881-0.102,3.766-0.102,5.661c0,1.647,0.028,3.289,0.074,4.925c0.01,0.346,0.028,0.691,0.04,1.036 c0.046,1.361,0.107,2.718,0.184,4.071c0.014,0.245,0.031,0.489,0.046,0.734c2.146,34.793,14.607,66.838,34.368,93.102 c0.541,0.723,1.097,1.437,1.65,2.151c0.278,0.359,0.555,0.719,0.835,1.076c9.758,12.414,21.247,23.574,34.278,33.039 c0.25,0.182,0.517,0.329,0.783,0.479c28.417,20.438,63.247,32.492,100.842,32.492c37.056,0,71.427-11.709,99.616-31.616 c0.288-0.156,0.574-0.315,0.846-0.509c11.045-7.883,21.177-17.082,30.115-27.343c0.244-0.28,0.46-0.58,0.662-0.889 c23.638-27.477,38.809-62.43,41.441-100.777c0.002-0.026,0.009-0.051,0.011-0.077C428.702,267.737,428.706,267.583,428.715,267.425 z M394.572,272.591c-9.826-12.735-14.21-25.365-12.77-30.217c0.189-0.637,0.449-1.21,1.625-1.712 c3.73,1.015,12.626,11.342,17.997,17.575c3.516,4.081,7.134,8.256,10.846,12.13c-1.51,16.554-5.593,32.376-11.86,47.053 C402.75,300.001,402.321,282.633,394.572,272.591z M148.227,271.027c11.915,12.83,28.382,12.91,40.405,12.968 c4.124,0.02,11.801,0.058,13.023,1.355c0.005,0.008,0.584,0.95,0.238,4.193c-0.956,8.928-10.084,18.765-19.748,29.179 c-14.99,16.154-31.975,34.46-25.957,58.294c-8.691-7.181-16.597-15.277-23.571-24.141c-0.015-0.018-0.03-0.037-0.044-0.056 c-0.473-0.603-0.935-1.215-1.4-1.825c-0.462-0.609-0.927-1.217-1.381-1.831c-0.2-0.271-0.397-0.543-0.594-0.815 c-17.566-24.172-28.115-53.115-29.867-83.361c-0.005-0.103-0.014-0.207-0.019-0.311c-0.069-1.235-0.117-2.474-0.157-3.713 c-0.008-0.227-0.019-0.453-0.026-0.679c-0.04-1.425-0.06-2.853-0.06-4.282c0-1.643,0.034-3.282,0.085-4.92 c0.015-0.474,0.036-0.946,0.054-1.42c0.05-1.241,0.113-2.479,0.192-3.716c0.028-0.445,0.053-0.892,0.085-1.337 c0.115-1.605,0.251-3.206,0.415-4.802c0.03-0.293,0.069-0.585,0.1-0.878c0.142-1.307,0.301-2.612,0.475-3.914 c0.074-0.557,0.153-1.113,0.234-1.67c0.16-1.098,0.333-2.195,0.515-3.288c0.089-0.532,0.171-1.067,0.265-1.597 c0.253-1.43,0.529-2.855,0.822-4.276c0.151-0.731,0.316-1.457,0.476-2.185c0.168-0.76,0.341-1.518,0.52-2.274 c0.203-0.853,0.407-1.704,0.624-2.551c0.129-0.51,0.269-1.016,0.404-1.525c0.548-2.057,1.129-4.101,1.757-6.125 c0.017-0.056,0.033-0.113,0.051-0.169c0.373-1.196,0.761-2.386,1.162-3.571c0.017-0.05,0.034-0.1,0.051-0.15 c3.848-11.328,8.965-22.072,15.166-32.077c37.567,0.194,70.609,3.058,78.127,6.758c1.754,6.362,1.742,16.428-1.029,21.404 c-0.454,0.814-0.971,1.407-1.289,1.475c-11.621,2.49-46.327,20.465-50.246,22.505c-0.158,0.083-0.315,0.171-0.469,0.264 c-0.963,0.585-9.439,6.034-10.956,16.967C135.407,251.959,139.298,261.411,148.227,271.027z M171.18,387.984 c1.845-4.196,2.133-9.25,0.703-14.839c-3.931-15.358,8.719-28.991,22.113-43.424c11.035-11.891,22.446-24.188,23.972-38.456 c0.757-7.068-0.677-12.682-4.26-16.689c-5.951-6.654-15.203-6.699-24.997-6.747c-10.564-0.052-21.488-0.105-28.635-7.802 c-5.24-5.644-7.875-10.874-7.419-14.727c0.363-3.069,2.654-4.982,3.316-5.475c14.125-7.342,38.665-19.301,45.745-20.818 c3.513-0.752,8.451-2.998,12.026-9.414c5.566-9.992,5.219-26.249,1.667-36.194c-2.618-7.333-11.746-12.069-50.654-14.585 c-11.113-0.719-22.242-1.078-30.877-1.257c28.792-35.648,72.835-58.492,122.12-58.492c31.521,0,60.895,9.349,85.51,25.408 c-3.163,3.284-7.012,6.24-10.096,6.24c-16.558,0-34.713,1.468-43.826,12.354c-2.985,3.566-6.199,9.742-4.56,18.919 c2.217,12.423,9.433,20.179,15.23,26.411c6.574,7.066,8.756,10.01,7.446,15.258c-1.162,2.864-12.691,7.471-19.581,10.224 c-16.272,6.502-34.714,13.871-40.765,29.943c-3.343,8.873-2.185,18.977,3.436,30.034c14.32,28.158,25.668,32.924,36.989,35.636 c4.185,1.002,5.599,1.439,7.476,3.935c2.683,3.569,7.751,4.288,11.319,1.606c3.57-2.683,4.289-7.75,1.605-11.319 c-5.463-7.269-11.656-8.752-16.634-9.946c-6.667-1.596-14.222-3.407-26.343-27.242c-3.526-6.935-4.416-12.499-2.717-17.008 c3.54-9.4,18.465-15.364,31.635-20.627c14.269-5.702,26.593-10.626,29.254-21.271c3.569-14.276-4.665-23.126-11.281-30.237 c-5.024-5.4-9.769-10.502-11.151-18.239c-0.581-3.255,0.25-4.756,1.041-5.699c3.647-4.356,14.22-6.564,31.428-6.564 c9.857,0,18.147-7.065,23.263-12.813c8.914,7.228,17.024,15.41,24.172,24.393c0.337,0.427,0.677,0.852,1.01,1.281 c0.305,0.392,0.606,0.788,0.908,1.184c0.655,0.862,1.307,1.726,1.943,2.6c0.014,0.019,0.029,0.04,0.043,0.059 c17.402,23.924,27.924,52.533,29.852,82.431c0.01,0.155,0.021,0.309,0.029,0.464c-11.909-13.806-22.307-25.382-34.134-21.239 c-6.104,2.136-10.438,6.587-12.202,12.533c-5.026,16.941,12.006,40.202,15.471,44.693c6.241,8.089,5.318,37.232-8.354,77.532 c-6.471,7.297-13.607,13.991-21.318,19.982c-8.906-8.973-20.15-26.695-33.518-52.847c-2.032-3.975-6.9-5.551-10.878-3.519 c-3.975,2.032-5.55,6.903-3.518,10.878c13.431,26.274,24.621,44.094,34.503,54.831c-24.026,14.956-52.364,23.611-82.689,23.611 C224.776,412.936,195.654,403.766,171.18,387.984z"/> <path style="fill:#1d1494;" d="M447.457,86.055c-0.074-0.084-0.156-0.157-0.234-0.238c3.532-5.774,5.571-12.556,5.571-19.807 c0-20.993-17.078-38.071-38.07-38.071c-9.669,0-18.501,3.628-25.223,9.588C349.406,12.976,303.246,0,256,0 C187.62,0,123.333,26.629,74.982,74.982C26.628,123.333,0,187.62,0,256s26.628,132.667,74.982,181.019 C123.333,485.371,187.62,512,256,512s132.667-26.629,181.019-74.982C485.372,388.667,512,324.379,512,256 C512,193.264,489.077,132.91,447.457,86.055z M414.723,44.106c12.077,0,21.902,9.825,21.902,21.903s-9.825,21.904-21.902,21.904 c-12.078,0-21.904-9.826-21.904-21.904C392.819,53.932,402.645,44.106,414.723,44.106z M256,495.832 C123.756,495.832,16.168,388.244,16.168,256S123.756,16.168,256,16.168c43.816,0,86.626,11.915,123.909,34.456 c-2.089,4.708-3.26,9.911-3.26,15.385c0,20.993,17.079,38.072,38.072,38.072c7.886,0,15.219-2.411,21.301-6.533 c38.571,43.786,59.808,100.012,59.808,158.452C495.832,388.244,388.244,495.832,256,495.832z"/> </g> </g>
</svg>