<!DOCTYPE svg PUBLIC "-//W3C//DTD SVG 1.1//EN" "http://www.w3.org/Graphics/SVG/1.1/DTD/svg11.dtd">
<!-- Uploaded to: SVG Repo, www.svgrepo.com, Transformed by: SVG Repo Mixer Tools -->
<svg height="105px" width="105px" version="1.1" id="Layer_1" xmlns="http://www.w3.org/2000/svg" xmlns:xlink="http://www.w3.org/1999/xlink" viewBox="0 0 512 512" xml:space="preserve" fill="#000000">
<g id="SVGRepo_bgCarrier" stroke-width="0"/>
<g id="SVGRepo_tracerCarrier" stroke-linecap="round" stroke-linejoin="round"/>
<g id="SVGRepo_iconCarrier"> <circle style="fill:#2905e1;" cx="204.692" cy="255.995" r="130.867"/> <g> <path style="fill:#41ec09;" d="M123.92,263.551c-16.03-17.265-1.85-25.896-1.85-25.896s29.596-15.415,38.228-17.266 c8.633-1.849,9.248-19.112,6.166-27.744c-3.076-8.61-70.847-8.449-71.192-8.446c-13.553,20.616-21.446,45.282-21.446,71.798 c0,43.569,21.296,82.159,54.041,105.945c3.651-2.007,5.385-5.681,3.906-11.455c-6.946-27.128,34.073-45.625,36.383-67.207 C170.466,261.701,139.952,280.815,123.92,263.551z"/> <path style="fill:#41ec09;" d="M178.179,315.959c0,0-13.63,14.798-9.898,25.896c3.733,11.097,17.297,16.031,24.079,0 C199.142,325.824,191.743,306.709,178.179,315.959z"/> </g> <path style="fill:#0179e9;" d="M435.591,175.845c-18.828,0-34.091,15.263-34.091,34.09v22.987v3.823v57.259 c0,8.464,6.862,15.324,15.327,15.324h37.528c8.464,0,15.327-6.861,15.327-15.324v-57.259v-3.823v-22.987 C469.682,191.108,454.419,175.845,435.591,175.845z"/> <g> <path style="fill:#0179e9;" d="M469.682,229.178v3.744v3.823v57.259c0,8.464-6.863,15.324-15.327,15.324h49.561v-46.614 L469.682,229.178z"/> <path style="fill:#0179e9;" d="M401.109,229.178v3.744v3.823v57.259c0,8.464,6.862,15.324,15.327,15.324h-49.561v-46.614 L401.109,229.178z"/> </g> <g style="opacity:0.1;"> <path style="fill:#4a1281;" d="M401.109,229.178v3.744v3.823v57.259c0,8.464,6.862,15.324,15.327,15.324h-49.561v-46.614 L401.109,229.178z"/> </g> <g style="opacity:0.2;"> <path style="fill:#4a1281;" d="M99.142,255.998c0-68.004,51.872-123.888,118.208-130.256c-4.165-0.4-8.386-0.611-12.658-0.611 c-72.278,0-130.867,58.592-130.867,130.867s58.589,130.867,130.867,130.867c4.272,0,8.493-0.211,12.658-0.611 C151.014,379.885,99.142,324.002,99.142,255.998z"/> </g> <g style="opacity:0.2;"> <path style="fill:#4a1281;" d="M426.818,294.005v-57.259v-3.823v-22.987c0-14.352,8.874-26.624,21.433-31.651 c-3.916-1.567-8.184-2.438-12.659-2.438c-18.828,0-34.091,15.263-34.091,34.09v22.987v3.823v57.259 c0,8.464,6.862,15.324,15.327,15.324h25.316C433.68,309.33,426.818,302.469,426.818,294.005z"/> </g> <path style="fill:#41ec09;" d="M253.964,325.513c8.096,15.237,17.13,30.086,26.674,37.069c8.38-5.981,16.025-12.929,22.772-20.676 c10.175-29.451,14.02-58.57,6.099-68.834c-9.247-11.986-17.881-31.099-5.549-35.415c7.849-2.748,19.443,15.7,31.286,27.344 c0.202-2.976,0.313-5.976,0.313-9.003c0-43.439-21.17-81.926-53.748-105.73l0,0c0,0-8.063,12.783-17.311,12.783 c-9.249,0-35.145,0-32.062,17.264c3.083,17.265,21.581,20.964,17.882,35.761c-3.7,14.796-64.125,14.798-45.626,51.176 c18.496,36.377,27.978,16.647,36.803,33.911"/> <g> <path style="fill:#4a1281;" d="M343.403,247.947c-0.011-0.177-0.023-0.354-0.033-0.529c-1.713-27.977-11.735-53.743-27.634-74.851 c-0.196-0.262-0.399-0.517-0.596-0.778c-0.479-0.626-0.959-1.253-1.449-1.87c-0.539-0.684-1.088-1.36-1.639-2.034 c-0.102-0.124-0.204-0.248-0.306-0.372c-7.303-8.86-15.726-16.874-25.167-23.772c-0.254-0.185-0.52-0.35-0.79-0.503 c-22.837-16.471-50.852-26.191-81.096-26.191c-48.169,0-90.687,24.642-115.624,61.977c-0.195,0.234-0.383,0.477-0.552,0.736 c-7.034,10.699-12.482,22.229-16.296,34.278c-0.096,0.303-0.195,0.605-0.29,0.909c-0.262,0.846-0.514,1.696-0.76,2.547 c-0.167,0.58-0.327,1.163-0.487,1.746c-0.279,1.019-0.55,2.04-0.805,3.066c-0.234,0.937-0.462,1.876-0.677,2.819 c-0.137,0.603-0.266,1.206-0.395,1.811c-0.203,0.95-0.395,1.902-0.578,2.86c-0.089,0.467-0.184,0.932-0.269,1.4 c-0.25,1.381-0.476,2.769-0.686,4.164c-0.061,0.415-0.116,0.832-0.175,1.248c-0.16,1.14-0.306,2.286-0.438,3.435 c-0.044,0.388-0.093,0.775-0.134,1.164c-0.156,1.468-0.292,2.943-0.402,4.425c-0.02,0.273-0.033,0.545-0.052,0.818 c-0.085,1.255-0.153,2.515-0.205,3.779c-0.017,0.409-0.033,0.817-0.046,1.226c-0.049,1.51-0.082,3.023-0.082,4.544 c0,1.323,0.023,2.64,0.059,3.954c0.008,0.278,0.022,0.555,0.031,0.832c0.037,1.092,0.085,2.182,0.148,3.267 c0.012,0.196,0.025,0.391,0.038,0.587c1.721,27.923,11.72,53.64,27.576,74.72c0.453,0.605,0.916,1.2,1.379,1.797 c0.204,0.262,0.405,0.526,0.611,0.787c7.836,9.974,17.064,18.939,27.531,26.541c0.204,0.148,0.424,0.263,0.638,0.39 c22.809,16.402,50.765,26.076,80.94,26.076c29.745,0,57.334-9.399,79.961-25.378c0.23-0.132,0.462-0.253,0.68-0.409 c8.872-6.333,17.004-13.717,24.172-21.947c0.218-0.25,0.414-0.517,0.598-0.792c18.94-22.047,31.092-50.08,33.2-80.831 c0.001-0.016,0.005-0.031,0.006-0.047c0.006-0.1,0.009-0.198,0.015-0.299c0.091-1.37,0.161-2.745,0.211-4.125 c0.009-0.225,0.018-0.451,0.026-0.675c0.046-1.478,0.079-2.959,0.079-4.448c0-1.321-0.023-2.637-0.059-3.949 c-0.008-0.266-0.022-0.532-0.03-0.799C343.515,250.145,343.466,249.044,343.403,247.947z M315.909,268.132 c-8.16-10.577-10.721-19.971-9.932-22.338c3.044,1.777,8.826,8.488,12.774,13.069c2.639,3.062,5.345,6.201,8.134,9.147 c-0.838,8.582-2.561,16.908-5.079,24.884C322.008,283.074,320.508,274.091,315.909,268.132z M117.996,269.052 c9.942,10.706,23.422,10.771,33.262,10.82c2.921,0.014,7.193,0.036,8.909,0.569c0.038,0.375,0.055,1.008-0.049,1.979 c-0.698,6.527-8.083,14.484-15.223,22.179c-10.636,11.46-23.652,25.489-21.827,43.035c-5.398-4.813-10.374-10.09-14.854-15.776 c-0.04-0.051-0.081-0.101-0.121-0.152c-0.405-0.516-0.801-1.04-1.199-1.562c-0.319-0.421-0.639-0.842-0.952-1.267 c-0.18-0.244-0.358-0.489-0.537-0.735c-14.392-19.849-22.743-43.799-23.446-68.717c-0.001-0.053-0.004-0.105-0.005-0.157 c-0.029-1.089-0.044-2.178-0.044-3.269c0-1.271,0.026-2.54,0.065-3.806c0.012-0.372,0.028-0.743,0.042-1.113 c0.038-0.943,0.085-1.885,0.144-2.825c0.023-0.365,0.043-0.731,0.069-1.095c0.089-1.245,0.192-2.489,0.318-3.728 c0.014-0.136,0.032-0.269,0.046-0.404c0.115-1.099,0.249-2.196,0.393-3.289c0.058-0.435,0.121-0.87,0.183-1.304 c0.117-0.815,0.244-1.629,0.376-2.44c0.075-0.46,0.149-0.923,0.23-1.382c0.19-1.078,0.392-2.153,0.611-3.223 c0.122-0.594,0.254-1.184,0.385-1.775c0.129-0.592,0.261-1.185,0.4-1.774c0.161-0.682,0.327-1.361,0.499-2.039 c0.102-0.404,0.21-0.807,0.316-1.21c0.707-2.672,1.496-5.311,2.377-7.909c0.004-0.011,0.008-0.023,0.011-0.033 c2.91-8.579,6.745-16.735,11.386-24.35c27.931,0.185,52.756,2.241,59.63,4.913c1.395,5.877,0.446,13.556-1.129,15.351 c-9.514,2.224-34.884,15.297-39.927,17.923c-0.158,0.083-0.316,0.171-0.469,0.265c-0.832,0.507-8.167,5.22-9.476,14.656 C107.326,253.085,110.558,261.041,117.996,269.052z M139.45,359.965c1.133-3.386,1.227-7.295,0.154-11.484 c-2.69-10.509,5.04-19.844,17.142-32.884c8.937-9.631,18.178-19.589,19.447-31.456c0.652-6.095-0.623-10.984-3.794-14.529 c-5.215-5.831-13.272-5.87-21.063-5.908c-8.022-0.039-16.317-0.08-21.492-5.654c-3.745-4.031-5.73-7.79-5.452-10.311 c0.184-1.664,1.417-2.79,1.878-3.156c11.913-6.186,30.573-15.184,35.72-16.288c3.125-0.669,7.51-2.649,10.651-8.287 c4.646-8.338,4.378-21.842,1.435-30.081c-2.364-6.62-9.685-10.599-41.543-12.665c-7.453-0.484-14.913-0.763-21.192-0.925 c22.538-26.372,56.024-43.121,93.352-43.121c23.909,0,46.24,6.876,65.13,18.746c-1.921,1.736-3.892,3.006-5.324,3.006 c-13.518,0-28.37,1.235-36.04,10.396c-2.596,3.101-5.394,8.458-3.98,16.373c1.845,10.336,7.753,16.686,12.501,21.789 c4.966,5.339,6.252,7.154,5.565,10.295c-1.603,2.032-9.392,5.145-14.585,7.22c-12.57,5.023-28.216,11.275-33.275,24.711 c-2.821,7.496-1.879,15.963,2.801,25.167c11.678,22.968,21.06,26.885,30.434,29.13c3.702,0.887,4.471,1.071,6.376,4.796 c2.031,3.975,6.897,5.551,10.878,3.519c3.975-2.032,5.55-6.903,3.518-10.878c-5.292-10.355-12.062-11.976-17.005-13.16 c-4.935-1.181-10.528-2.521-19.788-20.734c-2.537-4.987-3.237-9.073-2.083-12.14c2.547-6.764,14.521-11.549,24.143-15.393 c11.743-4.692,21.883-8.745,24.202-18.017c3.049-12.203-4.113-19.903-9.345-25.526c-3.977-4.275-7.413-7.968-8.422-13.617 c-0.382-2.144,0.188-2.825,0.462-3.152c1.759-2.102,7.29-4.607,23.643-4.607c7.82,0,14.313-4.954,18.638-9.519 c6.506,5.417,12.444,11.493,17.714,18.124c0.216,0.273,0.434,0.544,0.648,0.819c0.24,0.307,0.474,0.618,0.711,0.928 c13.66,17.925,22.287,39.415,24.62,62.033c-8.271-9.314-16.364-16.708-25.542-13.494c-5.363,1.877-9.172,5.798-10.728,11.042 c-4.111,13.856,8.564,31.78,12.549,36.943c4.549,5.895,3.662,28.697-6.779,59.611c-4.686,5.255-9.813,10.105-15.327,14.492 c-7.444-7.779-14.74-20.684-19.899-30.393c-2.093-3.942-6.985-5.441-10.933-3.346c-3.942,2.094-5.44,6.989-3.346,10.932 c5.964,11.226,12.887,23.264,20.758,32.104c-18.406,11.024-39.92,17.37-62.89,17.37 C180.736,378.781,158.365,371.877,139.45,359.965z"/> <path style="fill:#4a1281;" d="M184.9,305.454c-3.759,0-7.553,1.287-11.276,3.827c-0.509,0.346-0.974,0.749-1.392,1.202 c-1.727,1.874-16.724,18.755-11.613,33.95c3.17,9.428,11.136,15.762,19.818,15.763c0.001,0,0.001,0,0.001,0 c3.892,0,13.567-1.481,19.368-15.19c4.641-10.971,4.183-23.737-1.14-31.769C195.339,308.217,190.451,305.454,184.9,305.454z M184.915,338.705c-1.555,3.677-3.37,5.322-4.477,5.322c-1.168,0-3.405-1.509-4.494-4.748c-1.353-4.021,3.333-12.215,7.523-17.1 c0.636-0.359,1.079-0.5,1.305-0.542C186.261,322.862,188.495,330.242,184.915,338.705z"/> <path style="fill:#4a1281;" d="M381.313,342.844c-3.919-2.136-8.829-0.69-10.968,3.23c-33.091,60.724-96.566,98.447-165.653,98.447 c-103.952,0-188.524-84.572-188.524-188.524c0-1.572,0.022-3.138,0.057-4.683c0.008-0.269,0.018-0.539,0.028-0.808l0.027-0.745 c0.033-1.039,0.068-2.079,0.116-3.097c0.02-0.397,0.045-0.792,0.069-1.189l0.051-0.84c0.052-0.876,0.102-1.752,0.166-2.627 c0.038-0.516,0.082-1.032,0.126-1.546l0.032-0.386c0.074-0.893,0.15-1.785,0.235-2.662c0.067-0.66,0.139-1.316,0.215-2.011 c0.092-0.861,0.189-1.72,0.293-2.575c0.082-0.669,0.169-1.336,0.254-1.983c0.114-0.853,0.232-1.703,0.36-2.565 c0.098-0.664,0.199-1.328,0.304-1.996c0.134-0.842,0.273-1.683,0.42-2.534c0.112-0.65,0.225-1.299,0.347-1.964 c0.155-0.848,0.319-1.692,0.483-2.527l0.068-0.346c0.102-0.52,0.204-1.039,0.317-1.572c0.163-0.79,0.337-1.576,0.513-2.362 l0.19-0.852c0.088-0.398,0.177-0.794,0.271-1.196c0.209-0.899,0.431-1.794,0.649-2.66l0.195-0.787 c0.075-0.307,0.152-0.614,0.232-0.923c0.258-0.998,0.532-1.991,0.814-3.004l0.158-0.584c0.066-0.243,0.129-0.485,0.203-0.738 c0.409-1.437,0.832-2.867,1.253-4.218l0.085-0.265c0.424-1.354,0.859-2.701,1.315-4.05c0.093-0.276,0.19-0.55,0.287-0.824 l0.193-0.549c0.328-0.944,0.653-1.888,0.994-2.822c0.129-0.354,0.262-0.705,0.396-1.057l0.217-0.575 c0.314-0.84,0.627-1.678,0.967-2.544c0.157-0.404,0.319-0.806,0.482-1.207l0.197-0.49c0.324-0.803,0.649-1.605,0.971-2.379 c0.232-0.549,0.466-1.094,0.701-1.639l0.053-0.125c0.333-0.774,0.669-1.547,1.012-2.313c0.235-0.527,0.475-1.053,0.716-1.578 l0.079-0.174c0.349-0.762,0.705-1.521,1.053-2.253c0.279-0.585,0.561-1.17,0.834-1.734c0.371-0.756,0.744-1.508,1.119-2.252 c0.291-0.573,0.581-1.146,0.866-1.699c0.391-0.755,0.789-1.504,1.188-2.251l0.064-0.116c0.269-0.506,0.538-1.011,0.824-1.528 c0.414-0.756,0.836-1.506,1.253-2.241l0.298-0.529c0.196-0.347,0.39-0.694,0.606-1.063c0.452-0.781,0.914-1.554,1.382-2.338 l0.275-0.465c0.19-0.319,0.378-0.638,0.577-0.963c0.532-0.874,1.079-1.739,1.616-2.589l0.705-1.123 c0.788-1.227,1.589-2.446,2.416-3.668l0.342-0.497c0.702-1.034,1.415-2.064,2.146-3.095c0.188-0.265,0.38-0.527,0.571-0.79 l0.331-0.453c0.545-0.759,1.091-1.517,1.662-2.281c0.231-0.31,0.466-0.618,0.701-0.925l0.378-0.495 c0.518-0.686,1.04-1.37,1.56-2.038c0.302-0.385,0.607-0.765,0.912-1.147l0.274-0.342c0.511-0.641,1.021-1.281,1.538-1.911 c0.369-0.448,0.741-0.894,1.111-1.339l0.142-0.17c0.518-0.621,1.041-1.239,1.549-1.832c0.432-0.502,0.868-1.001,1.302-1.496 l0.624-0.721c0.092-0.094,0.181-0.19,0.268-0.288c12.38-13.923,26.68-25.904,42.504-35.609c0.064-0.039,0.128-0.081,0.194-0.124 l0.081-0.047c1.609-0.982,3.247-1.949,4.856-2.867l1.122-0.625c1.312-0.737,2.633-1.461,3.974-2.17l0.258-0.137 c0.368-0.196,0.736-0.391,1.111-0.586c3.354-1.744,6.802-3.405,10.24-4.936l1.431-0.626c1.374-0.598,2.76-1.181,4.149-1.746 l1.261-0.516c1.853-0.737,3.589-1.4,5.312-2.025l1.034-0.364c1.482-0.529,2.973-1.038,4.461-1.53 c0.514-0.169,1.029-0.337,1.567-0.508c1.62-0.518,3.238-1.012,4.766-1.455l0.775-0.23c1.707-0.487,3.526-0.973,5.548-1.484 l1.489-0.363c1.458-0.355,2.925-0.694,4.404-1.016l0.439-0.097c0.351-0.078,0.703-0.156,1.079-0.234 c2.015-0.424,3.879-0.787,5.712-1.112l0.697-0.115c1.674-0.289,3.391-0.562,5.125-0.812c0.541-0.08,1.087-0.154,1.659-0.233 c1.585-0.216,3.174-0.411,4.775-0.589l1.182-0.135c1.887-0.196,3.863-0.37,5.871-0.516l1.438-0.091 c1.558-0.1,3.121-0.182,4.682-0.246l0.257-0.011c0.482-0.019,0.965-0.039,1.449-0.054c2.306-0.072,4.221-0.107,6.029-0.107 c1.805,0,3.72,0.033,6.029,0.107c0.48,0.015,0.957,0.034,1.435,0.053l0.262,0.011c1.568,0.064,3.13,0.147,4.665,0.245l1.461,0.093 c2.007,0.146,3.983,0.319,5.869,0.516l1.188,0.136c1.596,0.177,3.187,0.373,4.763,0.586c0.558,0.077,1.113,0.153,1.687,0.237 c1.71,0.247,3.427,0.52,5.068,0.803l0.744,0.124c1.826,0.326,3.692,0.689,5.72,1.116c0.356,0.073,0.711,0.153,1.066,0.231 l0.44,0.097c1.472,0.321,2.939,0.661,4.401,1.015l1.478,0.36c2.022,0.51,3.839,0.996,5.537,1.482l0.751,0.223 c1.55,0.449,3.167,0.943,4.833,1.476c0.516,0.163,1.03,0.332,1.536,0.497c1.497,0.494,2.984,1.002,4.455,1.527l1.043,0.368 c1.739,0.633,3.527,1.314,5.308,2.023l1.265,0.518c1.395,0.567,2.778,1.15,4.152,1.747l1.426,0.624 c3.436,1.528,6.881,3.189,10.25,4.941c0.348,0.18,0.695,0.364,1.042,0.549l0.332,0.177c1.333,0.705,2.656,1.429,3.975,2.171 l1.101,0.613c1.634,0.932,3.27,1.899,4.866,2.873l0.069,0.041c0.068,0.044,0.137,0.088,0.205,0.13 c15.823,9.705,30.123,21.686,42.504,35.609c0.074,0.084,0.157,0.172,0.245,0.261l0.648,0.745c0.43,0.49,0.859,0.982,1.298,1.495 c0.523,0.609,1.039,1.221,1.559,1.842c0.415,0.495,0.829,0.99,1.241,1.494c0.521,0.638,1.036,1.281,1.55,1.924l0.33,0.414 c0.286,0.357,0.569,0.712,0.843,1.061c0.528,0.678,1.05,1.364,1.575,2.057l0.388,0.509c0.234,0.306,0.468,0.612,0.68,0.897 c0.563,0.758,1.118,1.525,1.678,2.301l0.9,1.241c0.723,1.02,1.435,2.051,2.171,3.133l0.322,0.467 c0.816,1.204,1.614,2.421,2.392,3.631l0.711,1.137c0.545,0.861,1.09,1.721,1.624,2.599c0.16,0.261,0.316,0.524,0.472,0.786 l0.57,0.958c0.4,0.672,0.8,1.343,1.19,2.019c0.199,0.344,0.395,0.691,0.591,1.037l0.31,0.55c0.424,0.747,0.843,1.494,1.245,2.227 c0.24,0.441,0.476,0.884,0.714,1.327l0.184,0.344c0.399,0.745,0.793,1.489,1.182,2.239c2.057,3.964,6.937,5.511,10.897,3.456 c3.965-2.056,5.51-6.935,3.456-10.898c-0.423-0.814-0.85-1.622-1.282-2.427l-0.178-0.334c-0.259-0.483-0.516-0.966-0.788-1.465 c-0.451-0.819-0.907-1.633-1.367-2.445l-0.291-0.514c-0.225-0.399-0.451-0.799-0.681-1.196c-0.426-0.735-0.859-1.464-1.292-2.191 l-0.556-0.932c-0.193-0.327-0.386-0.652-0.58-0.969c-0.579-0.947-1.169-1.885-1.748-2.798l-0.26-0.415 c-0.166-0.268-0.334-0.537-0.513-0.816c-0.856-1.333-1.728-2.659-2.583-3.924c-0.111-0.167-0.225-0.332-0.341-0.497l-0.066-0.094 c-0.765-1.123-1.536-2.242-2.328-3.359c-0.215-0.302-0.432-0.601-0.651-0.901l-0.32-0.441c-0.596-0.827-1.194-1.652-1.819-2.493 c-0.264-0.354-0.531-0.703-0.798-1.053l-0.357-0.468c-0.565-0.745-1.131-1.489-1.714-2.236c-0.316-0.404-0.635-0.803-0.954-1.203 l-0.32-0.4c-0.556-0.697-1.112-1.394-1.673-2.077c-0.452-0.553-0.91-1.101-1.364-1.642c-0.559-0.668-1.121-1.336-1.676-1.98 c-0.471-0.552-0.947-1.098-1.428-1.646l-0.33-0.379c-0.183-0.212-0.368-0.426-0.554-0.636c-0.087-0.099-0.186-0.203-0.291-0.307 c-13.322-14.934-28.685-27.803-45.673-38.256c-0.079-0.053-0.158-0.106-0.241-0.156c-0.112-0.07-0.227-0.138-0.304-0.182 c-1.729-1.055-3.504-2.104-5.296-3.126l-1.185-0.661c-1.431-0.804-2.871-1.592-4.322-2.358l-0.317-0.168 c-0.392-0.208-0.785-0.416-1.171-0.617c-3.65-1.898-7.393-3.703-11.136-5.368l-1.545-0.675c-1.495-0.65-2.995-1.282-4.503-1.895 l-0.472-0.194c-0.296-0.123-0.595-0.246-0.899-0.366c-1.937-0.772-3.88-1.512-5.768-2.199l-1.126-0.398 c-1.604-0.572-3.216-1.125-4.851-1.663c-0.57-0.186-1.139-0.373-1.685-0.545c-1.782-0.57-3.544-1.107-5.26-1.605l-0.769-0.227 c-1.878-0.537-3.853-1.066-6.045-1.618c-0.4-0.1-0.802-0.198-1.204-0.295l-0.407-0.098c-1.586-0.385-3.173-0.752-4.763-1.099 l-0.407-0.089c-0.421-0.093-0.842-0.185-1.245-0.269c-2.175-0.457-4.199-0.853-6.189-1.206l-0.797-0.133 c-1.819-0.315-3.683-0.61-5.518-0.875c-0.61-0.089-1.221-0.174-1.842-0.259c-1.715-0.232-3.436-0.445-5.166-0.636l-1.288-0.147 c-2.054-0.215-4.199-0.403-6.377-0.562c-0.318-0.023-0.636-0.042-0.954-0.061l-0.615-0.039c-1.685-0.109-3.375-0.197-5.075-0.267 l-0.262-0.011c-0.528-0.022-1.055-0.042-1.581-0.058c-4.959-0.157-8.12-0.157-13.068,0c-0.53,0.016-1.061,0.038-1.593,0.059 l-0.258,0.011c-1.693,0.069-3.385,0.157-5.09,0.267l-0.584,0.037c-0.324,0.019-0.647,0.039-0.966,0.063 c-2.176,0.157-4.321,0.347-6.377,0.562c-0.28,0.029-0.561,0.061-0.84,0.095l-0.449,0.052c-1.728,0.192-3.448,0.404-5.214,0.644 c-0.598,0.082-1.196,0.164-1.774,0.249c-1.857,0.269-3.72,0.564-5.567,0.883l-0.761,0.127c-1.989,0.354-4.015,0.748-6.173,1.202 c-0.424,0.087-0.843,0.18-1.263,0.273l-0.404,0.089c-1.597,0.348-3.192,0.717-4.77,1.101l-0.409,0.098 c-0.402,0.097-0.804,0.195-1.212,0.296c-2.194,0.554-4.168,1.082-6.064,1.624l-0.767,0.227c-1.714,0.497-3.475,1.034-5.214,1.591 c-0.57,0.18-1.144,0.366-1.72,0.556c-1.619,0.535-3.232,1.085-4.867,1.669l-1.09,0.385c-1.878,0.682-3.766,1.401-5.768,2.199 c-0.303,0.12-0.604,0.244-0.903,0.368l-0.474,0.195c-1.51,0.615-3.014,1.248-4.509,1.898l-0.292,0.127 c-0.42,0.182-0.84,0.365-1.26,0.553c-3.739,1.663-7.481,3.468-11.117,5.358c-0.418,0.217-0.833,0.438-1.249,0.659l-0.244,0.129 c-1.453,0.77-2.895,1.558-4.305,2.351l-1.22,0.68c-1.757,1.002-3.531,2.05-5.222,3.082c-0.135,0.079-0.269,0.158-0.4,0.24 c-0.061,0.039-0.123,0.08-0.188,0.122C80.602,91.992,65.247,104.849,51.93,119.77c-0.116,0.116-0.231,0.237-0.338,0.36 c-0.18,0.203-0.357,0.407-0.532,0.613l-0.341,0.393c-0.472,0.539-0.943,1.078-1.429,1.644c-0.562,0.656-1.119,1.317-1.682,1.989 l-0.149,0.178c-0.399,0.479-0.799,0.957-1.198,1.443c-0.568,0.694-1.127,1.393-1.677,2.084l-0.257,0.32 c-0.342,0.428-0.684,0.856-1.03,1.299c-0.575,0.736-1.14,1.48-1.699,2.217l-0.343,0.451c-0.279,0.364-0.557,0.729-0.819,1.08 c-0.617,0.826-1.219,1.662-1.803,2.472l-0.281,0.385c-0.241,0.332-0.483,0.663-0.71,0.985c-0.787,1.108-1.562,2.228-2.329,3.357 l-0.371,0.539c-0.885,1.31-1.755,2.633-2.613,3.968c-0.161,0.25-0.318,0.502-0.474,0.755l-0.292,0.466 c-0.589,0.933-1.177,1.866-1.749,2.804c-0.234,0.383-0.462,0.767-0.69,1.152l-0.248,0.419c-0.504,0.843-1.007,1.685-1.483,2.512 c-0.24,0.412-0.473,0.826-0.707,1.24l-0.283,0.502c-0.457,0.81-0.914,1.621-1.353,2.421c-0.31,0.565-0.613,1.133-0.918,1.703 l-0.064,0.119c-0.427,0.803-0.855,1.606-1.283,2.433c-0.313,0.607-0.622,1.215-0.933,1.832c-0.406,0.805-0.807,1.613-1.214,2.441 c-0.302,0.619-0.6,1.242-0.91,1.888c-0.386,0.816-0.77,1.635-1.151,2.466l-0.083,0.182c-0.26,0.569-0.52,1.138-0.776,1.71 c-0.373,0.835-0.739,1.677-1.101,2.517l-0.053,0.123c-0.251,0.585-0.504,1.171-0.761,1.784c-0.359,0.859-0.709,1.722-1.057,2.59 l-0.189,0.465c-0.191,0.472-0.382,0.944-0.553,1.386c-0.361,0.919-0.708,1.845-1.049,2.757l-0.197,0.521 c-0.156,0.413-0.312,0.826-0.466,1.245c-0.37,1.016-0.725,2.04-1.076,3.054l-0.167,0.475c-0.121,0.343-0.241,0.687-0.356,1.024 c-0.494,1.459-0.967,2.925-1.435,4.42c-0.016,0.045-0.05,0.151-0.065,0.195c-0.481,1.549-0.943,3.108-1.384,4.658 c-0.093,0.326-0.181,0.652-0.269,0.981l-0.125,0.465c-0.303,1.089-0.604,2.176-0.885,3.268c-0.095,0.368-0.186,0.736-0.277,1.104 l-0.178,0.718c-0.243,0.972-0.483,1.946-0.71,2.917c-0.107,0.455-0.207,0.912-0.309,1.369l-0.192,0.858 c-0.19,0.857-0.38,1.714-0.556,2.561c-0.121,0.581-0.236,1.161-0.35,1.743l-0.068,0.346c-0.182,0.922-0.361,1.843-0.525,2.75 c-0.132,0.715-0.258,1.431-0.378,2.133c-0.157,0.916-0.312,1.836-0.455,2.75c-0.114,0.72-0.224,1.444-0.329,2.155 c-0.137,0.921-0.264,1.843-0.392,2.79c-0.095,0.717-0.189,1.434-0.277,2.155c-0.115,0.946-0.223,1.894-0.32,2.807 c-0.079,0.716-0.157,1.433-0.231,2.164c-0.094,0.964-0.175,1.931-0.255,2.89l-0.031,0.37c-0.049,0.578-0.098,1.154-0.14,1.732 c-0.07,0.956-0.126,1.913-0.183,2.873l-0.046,0.777c-0.028,0.456-0.057,0.912-0.081,1.387c-0.055,1.124-0.093,2.255-0.128,3.389 l-0.023,0.628c-0.014,0.342-0.026,0.683-0.036,1.044C0.023,252.608,0,254.299,0,255.998C0,368.865,91.824,460.69,204.692,460.69 c75.01,0,143.923-40.954,179.851-106.879C386.679,349.89,385.233,344.98,381.313,342.844z"/> <path style="fill:#4a1281;" d="M454.748,328.065h-38.312c-4.466,0-8.084,3.62-8.084,8.084s3.618,8.084,8.084,8.084h38.312 c4.466,0,8.084-3.62,8.084-8.084S459.212,328.065,454.748,328.065z"/> <path style="fill:#4a1281;" d="M509.573,256.942l-31.807-31.161v-15.846c0-23.255-18.92-42.174-42.175-42.174 c-23.254,0-42.175,18.919-42.175,42.174v15.463l-32.199,31.542c-1.552,1.521-2.427,3.601-2.427,5.774v46.614 c0,4.465,3.618,8.084,8.084,8.084h49.561c0.006,0,0.015,0,0.022,0c0.042,0,0.082-0.005,0.124-0.006 c0.083,0.001,0.164,0.006,0.247,0.006h37.528h49.561c4.466,0,8.084-3.62,8.084-8.084v-46.614 C512,260.543,511.125,258.462,509.573,256.942z M409.585,209.935c0-14.339,11.666-26.005,26.006-26.005 c14.34,0,26.006,11.666,26.006,26.005v19.244v64.827c0,3.993-3.249,7.24-7.242,7.24h-37.528c-3.994,0-7.242-3.248-7.242-7.24 L409.585,209.935L409.585,209.935z M374.959,301.245v-35.132l18.067-17.698v45.59c0,2.525,0.402,4.959,1.146,7.24H374.959z M495.832,301.245H476.62c0.011-0.032,0.017-0.066,0.028-0.098c0.161-0.501,0.305-1.009,0.432-1.523 c0.026-0.106,0.049-0.211,0.073-0.317c0.11-0.472,0.207-0.949,0.287-1.431c0.012-0.072,0.027-0.144,0.039-0.217 c0.083-0.529,0.146-1.066,0.192-1.606c0.011-0.125,0.019-0.249,0.028-0.375c0.04-0.553,0.067-1.11,0.067-1.673v-45.59 l18.065,17.698V301.245z"/> </g> </g>
</svg>